<?xml version="1.0" encoding="UTF-8"?>
<svg id="_レイヤー_1" data-name="レイヤー 1" xmlns="http://www.w3.org/2000/svg" viewBox="0 0 200 26.91">
  <path d="M171.09,24.86V1.99c0-1.1.89-1.99,1.99-1.99h2.87c.58,0,1.13.25,1.51.69l22.54,26.15h-4.14c-.58,0-1.13-.24-1.51-.68l-5.77-6.69c-.38-.44-.93-.69-1.51-.69h-10.02c-1.1,0-1.99.89-1.99,1.99v4.08c-.01,2.24.3,1.93-1.99,1.99h0c-1.99-.06-1.99.4-1.99-1.99ZM176.91,16.02l4.31.06c1.73.03,2.66-2.01,1.52-3.3l-7.55-8.59h-.25v9.83c0,1.09.87,1.97,1.96,1.99Z" style="fill: #231815;"/>
  <path d="M70.78,24.86V1.99C70.78.89,71.67,0,72.77,0h2.87c.58,0,1.13.25,1.51.69l22.54,26.15h-4.14c-.58,0-1.13-.24-1.51-.68l-5.77-6.69c-.38-.44-.93-.69-1.51-.69h-10.02c-1.1,0-1.99.89-1.99,1.99v4.08c-.01,2.24.3,1.93-1.99,1.99h0c-1.99-.06-1.99.4-1.99-1.99ZM76.59,16.02l4.31.06c1.73.03,2.66-2.01,1.52-3.3l-7.55-8.59h-.25v9.83c0,1.09.87,1.97,1.96,1.99Z" style="fill: #231815;"/>
  <g>
    <path d="M20.98,24.92V2.05c0-1.1.89-1.99,1.99-1.99h2.87c.58,0,1.13.25,1.51.69l22.54,26.15h-4.14c-.58,0-1.13-.24-1.51-.68l-5.77-6.69c-.38-.44-.93-.69-1.51-.69h-10.02c-1.1,0-1.99.89-1.99,1.99v4.08c-.01,2.24.3,1.93-1.99,1.99h0c-1.99-.06-1.99.4-1.99-1.99ZM26.79,16.08l4.31.06c1.73.03,2.66-2.01,1.52-3.3l-7.55-8.59h-.25v9.83c0,1.09.87,1.97,1.96,1.99Z" style="fill: #231815;"/>
    <g>
      <path d="M25.61,0l-10.62,13.74c-.26.34-.4.75-.4,1.18v11.92h-3.58v-11.92c0-.43-.14-.84-.4-1.18L0,0h3.57c.6,0,1.17.28,1.53.76l6.32,8.32c.77,1.01,2.29,1.02,3.07,0L20.84.76c.36-.48.93-.76,1.53-.76h3.24Z" style="fill: #231815;"/>
      <path d="M70.93,26.85V6.5h-.21l-9.7,16.32h-.74l-9.7-16.32h-.21v20.35h-3.41V1.93c0-1.06.86-1.93,1.93-1.93h.76c.68,0,1.31.36,1.66.94l9.47,15.95h.08L70.33.95c.35-.58.98-.94,1.66-.94h2.52v26.84h-3.58Z" style="fill: #231815;"/>
      <g>
        <path d="M123.65.69c-.38-.44-.93-.69-1.51-.69h-2.87s-.01,0-.02,0h.13l-2.1,2.01v19.24l3.96,5.08c.04-.29.01-.74.02-1.48v-4.08c0-1.1.89-1.99,1.99-1.99h10.02c.58,0,1.13.25,1.51.69l5.77,6.69c.38.44.93.69,1.51.69h4.14S123.65.69,123.65.69ZM127.41,16.08l-4.31-.06c-1.09-.02-1.96-.9-1.96-1.99V4.19h.25l7.55,8.59c1.14,1.3.2,3.33-1.52,3.3Z" style="fill: #231815;"/>
        <path d="M117.91,26.83c-.1,0-.19-.05-.28-.07.07.03.17.06.28.07Z" style="fill: #231815;"/>
        <path d="M121.24,26.34c-.08.58-.45.47-1.97.51-.64-.02-1.06.01-1.36-.01.03,0,.05.02.08.02" style="fill: #231815;"/>
        <path d="M117.28,24.86v-3.6l-7.52-9.64c-.61-.78-.53-1.89.19-2.58l7.33-7.02v-.03c0-1.09.88-1.97,1.97-1.98h-3.48c-.5,0-.98.2-1.34.55l-11.5,11.19c-1.22,1.19-3.27.32-3.27-1.38V0h-3.58v26.84h3.58v-7.12c0-.52.21-1.02.58-1.38l4.32-4.21c.83-.81,2.17-.71,2.87.21l9.04,11.75c.29.37.71.58,1.17.67-.34-.15-.35-.59-.35-1.91Z" style="fill: #231815;"/>
        <path d="M117.28,1.99v.03L119.38,0h-.13c-1.09.01-1.97.89-1.97,1.98Z" style="fill: #231815;"/>
        <path d="M117.28,24.86c0,1.32.01,1.76.35,1.91.1.02.18.06.28.07.29.02.71,0,1.36.01,1.53-.04,1.89.07,1.97-.51l-3.96-5.08v3.6Z" style="fill: #231815;"/>
      </g>
      <path d="M137.51,0c.84,0,1.59.55,1.84,1.36l6.24,20.1h.21L152.65,0h2.71l6.87,21.46h.25l6.24-20.1c.25-.81,1-1.36,1.84-1.36h2.28l-8.2,25.51c-.26.8-1,1.34-1.83,1.34h-.85c-.84,0-1.58-.54-1.83-1.34l-6.06-18.81h-.25l-6.06,18.81c-.26.8-1,1.34-1.83,1.34h-.85c-.84,0-1.58-.54-1.83-1.34L135.02,0h2.49Z" style="fill: #231815;"/>
    </g>
  </g>
</svg>