<?xml version="1.0" encoding="UTF-8"?>
<svg id="_レイヤー_1" data-name="レイヤー 1" xmlns="http://www.w3.org/2000/svg" viewBox="0 0 402.52 48.52">
  <path d="M.4,1.67c-.32-.48-.4-.72-.4-.88,0-.24.16-.48.48-.48h10.17c.96,0,1.36.16,1.92.96l8.25,11.61c1.76,2.4,4.01,6.49,4.01,6.49h.32s2.16-3.92,4.01-6.49L37.41,1.27c.56-.8.96-.96,1.92-.96h10.17c.32,0,.48.24.48.48,0,.16-.08.4-.4.88l-19.14,27.47v18.26c0,.48-.48.96-.96.96h-8.97c-.48,0-.96-.48-.96-.96v-18.26L.4,1.67Z" style="fill: #231815;"/>
  <path d="M142.66.31c.48,0,.96.48.96.96v46.14c0,.48-.48.96-.96.96h-8.97c-.48,0-.96-.48-.96-.96v-29.4h-.24s-.96,2.4-2.96,5.13l-14.18,19.94-14.26-19.94c-1.92-2.72-2.88-5.13-2.88-5.13h-.24v29.4c0,.48-.48.96-.96.96h-8.97c-.48,0-.96-.48-.96-.96V1.27c0-.48.48-.96.96-.96h7.05c.56,0,1.12.24,1.52.8l18.66,26.11h.16L134.09,1.11c.4-.56.96-.8,1.52-.8h7.05Z" style="fill: #231815;"/>
  <path d="M219.52,21.94l21.87,25.07c.32.32.4.48.4.8,0,.24-.16.56-.72.56h-11.53c-.72,0-1.28-.16-1.76-.72l-15.86-18.26-7.05,6.81v11.21c0,.48-.48.96-.96.96h-8.97c-.48,0-.96-.48-.96-.96V1.27c0-.48.48-.96.96-.96h8.97c.48,0,.96.48.96.96v21.23h.16s1.36-1.52,3.04-3.12L226.65,1.19c.72-.72,1.28-.88,2.08-.88h11.38c.56,0,.72.4.72.56,0,.24-.08.4-.56.88l-20.74,20.19Z" style="fill: #231815;"/>
  <path d="M342.04,48.37h-6.65l-11.05-26.27c-.56-1.36-1.2-3.36-1.2-3.36h-.16s-.56,2-1.12,3.36l-11.13,26.27h-6.65L282.68,1.75c-.16-.32-.32-.72-.32-.96s.16-.48.64-.48h9.61c.96,0,1.12,0,1.6,1.04l10.81,22.99c1.2,2.48,2.56,6.97,2.56,6.97h.32s.8-3.04,1.92-5.61L320.49.31h5.13l10.65,25.39c1.12,2.64,1.92,5.61,1.92,5.61h.32s1.36-4.48,2.56-6.97l10.81-22.99c.48-.96.64-1.04,1.6-1.04h9.61c.48,0,.64.24.64.48s-.16.64-.32.96l-21.39,46.62Z" style="fill: #231815;"/>
  <path d="M61.33,2.36l-22.46,45.16h44.91L61.33,2.36ZM61.23,19.94l9.11,19.79h-18.22l9.11-19.79Z" style="stroke: #231815; stroke-miterlimit: 10; stroke-width: 2px;"/>
  <path d="M168.8,2.25l-22.46,45.16h44.91L168.8,2.25ZM168.69,19.82l9.11,19.79h-18.22l9.11-19.79Z" style="stroke: #231815; stroke-miterlimit: 10; stroke-width: 2px;"/>
  <path d="M267.65,2.25l-22.46,45.16h44.91l-22.46-45.16ZM267.55,19.82l9.11,19.79h-18.22l9.11-19.79Z" style="stroke: #231815; stroke-miterlimit: 10; stroke-width: 2px;"/>
  <path d="M378.45,2.25l-22.46,45.16h44.91l-22.46-45.16ZM378.34,19.82l9.11,19.79h-18.22l9.11-19.79Z" style="stroke: #231815; stroke-miterlimit: 10; stroke-width: 2px;"/>
</svg>